<svg width="232" height="67" viewBox="0 0 232 67" fill="none" xmlns="http://www.w3.org/2000/svg">
<path d="M37.5417 20.4239C48.2207 22.3614 56.1076 29.842 56.1076 41.6741C56.1076 53.5063 46.4344 62.9999 34.6564 62.9999C23.892 62.9999 14.9994 55.2946 13.516 44.9427C11.186 45.0202 9.38223 43.0749 9.53756 41.2072C9.77249 38.487 12.1122 37.4698 13.7509 37.712C16.0129 38.2564 18.04 36.0768 18.04 34.0521C18.04 32.0274 17.339 31.9519 16.6362 31.173C13.7509 28.9934 14.0635 25.7171 15.31 23.9269C16.9488 21.7472 21.0048 20.4239 23.659 24.1594C24.9852 25.9496 26.3113 26.184 28.2607 25.4051C30.212 24.7038 30.913 22.7586 30.445 20.7358C29.8994 18.3217 31.9983 16.609 33.9555 16.609C35.9127 16.609 37.7844 18.3992 37.5417 20.4239Z" fill="#2F76BA"/>
<path d="M43.0811 45.9539C42.3045 45.9539 41.5977 46.3414 41.0521 46.9652C40.9639 47.0626 40.8578 47.1422 40.7395 47.1997C40.1072 47.7037 39.4285 48.1467 38.7125 48.523C37.6844 48.9924 36.5656 49.2312 35.435 49.2224C33.4934 49.2224 32.0041 48.523 30.8333 47.1222C29.7421 45.7989 29.28 44.2412 29.28 42.2959C29.28 40.4282 29.8256 38.793 30.8333 37.5472C31.9983 36.1464 33.4856 35.4469 35.435 35.4469C36.5496 35.4354 37.6495 35.7017 38.6348 36.2219C39.4041 36.5786 40.114 37.051 40.7395 37.6227C41.2075 38.0102 41.5162 38.2466 41.5977 38.3241C42.0518 38.6517 42.5914 38.8408 43.151 38.8685C44.7878 38.8685 46.114 37.2352 46.114 35.2881C46.1306 34.7349 46.028 34.1846 45.8129 33.6745C45.5978 33.1644 45.2754 32.7064 44.8674 32.3315L44.7878 32.2521C42.3705 29.7624 39.0154 28.5166 34.804 28.5166C30.9032 28.5166 27.7054 29.9174 25.1308 32.719C22.7212 35.3675 21.4747 38.638 21.4747 42.4509C21.4747 46.4202 22.7231 49.6893 25.2201 52.2584C27.7927 54.905 31.0702 56.3058 35.1224 56.3058C39.1008 56.3058 42.3064 54.905 44.716 52.1809L44.7937 52.1034C45.4138 51.3619 45.746 50.4225 45.7295 49.4568C45.8887 47.593 44.6403 45.9539 43.0811 45.9539Z" fill="white"/>
<path d="M12.2694 36.069C13.7771 36.069 14.9993 34.8494 14.9993 33.3449C14.9993 31.8405 13.7771 30.6208 12.2694 30.6208C10.7617 30.6208 9.53946 31.8405 9.53946 33.3449C9.53946 34.8494 10.7617 36.069 12.2694 36.069Z" fill="#31A753"/>
<path d="M26.2317 22.6811C27.7394 22.6811 28.9616 21.4615 28.9616 19.957C28.9616 18.4525 27.7394 17.2329 26.2317 17.2329C24.724 17.2329 23.5017 18.4525 23.5017 19.957C23.5017 21.4615 24.724 22.6811 26.2317 22.6811Z" fill="#31A753"/>
<path d="M5.4038 20.3464C6.1791 20.3464 6.8076 19.7192 6.8076 18.9456C6.8076 18.172 6.1791 17.5448 5.4038 17.5448C4.6285 17.5448 4 18.172 4 18.9456C4 19.7192 4.6285 20.3464 5.4038 20.3464Z" fill="#31A753"/>
<path d="M20.6146 9.60323C21.3899 9.60323 22.0184 8.97607 22.0184 8.20243C22.0184 7.42879 21.3899 6.80164 20.6146 6.80164C19.8393 6.80164 19.2108 7.42879 19.2108 8.20243C19.2108 8.97607 19.8393 9.60323 20.6146 9.60323Z" fill="#31A753"/>
<path d="M6.72993 29.1426C7.9363 29.1426 8.91426 28.1668 8.91426 26.963C8.91426 25.7592 7.9363 24.7833 6.72993 24.7833C5.52355 24.7833 4.54559 25.7592 4.54559 26.963C4.54559 28.1668 5.52355 29.1426 6.72993 29.1426Z" fill="#2F76BA"/>
<path d="M13.048 22.0594C14.2544 22.0594 15.2323 21.0835 15.2323 19.8797C15.2323 18.6759 14.2544 17.7001 13.048 17.7001C11.8416 17.7001 10.8637 18.6759 10.8637 19.8797C10.8637 21.0835 11.8416 22.0594 13.048 22.0594Z" fill="#E74335"/>
<path d="M27.9481 13.8871C29.0687 13.8871 29.9771 12.9806 29.9771 11.8624C29.9771 10.7442 29.0687 9.83777 27.9481 9.83777C26.8275 9.83777 25.9191 10.7442 25.9191 11.8624C25.9191 12.9806 26.8275 13.8871 27.9481 13.8871Z" fill="#E74335"/>
<path d="M10.0851 13.7299C10.8604 13.7299 11.4889 13.1028 11.4889 12.3291C11.4889 11.5555 10.8604 10.9283 10.0851 10.9283C9.30978 10.9283 8.68127 11.5555 8.68127 12.3291C8.68127 13.1028 9.30978 13.7299 10.0851 13.7299Z" fill="#2F76BA"/>
<path d="M20.2243 16.5316C20.9996 16.5316 21.6281 15.9044 21.6281 15.1308C21.6281 14.3571 20.9996 13.73 20.2243 13.73C19.449 13.73 18.8205 14.3571 18.8205 15.1308C18.8205 15.9044 19.449 16.5316 20.2243 16.5316Z" stroke="#31A753" stroke-miterlimit="10"/>
<path d="M20.2243 16.5316C20.9996 16.5316 21.6281 15.9044 21.6281 15.1308C21.6281 14.3571 20.9996 13.73 20.2243 13.73C19.449 13.73 18.8205 14.3571 18.8205 15.1308C18.8205 15.9044 19.449 16.5316 20.2243 16.5316Z" fill="#2F76BA"/>
<path d="M14.2965 6.80159C15.0718 6.80159 15.7003 6.17443 15.7003 5.40079C15.7003 4.62716 15.0718 4 14.2965 4C13.5212 4 12.8927 4.62716 12.8927 5.40079C12.8927 6.17443 13.5212 6.80159 14.2965 6.80159Z" fill="#E74335"/>
<path d="M62.113 41.1996C62.113 35.9839 66.3264 31.859 71.7086 31.859C74.4385 31.859 77.0908 33.0215 78.6499 34.9725C79.0079 35.3506 79.2037 35.8533 79.1955 36.3733C79.192 36.5934 79.1447 36.8106 79.0563 37.0122C78.968 37.2139 78.8403 37.396 78.6808 37.548C78.5212 37.6999 78.333 37.8187 78.1271 37.8975C77.9211 37.9762 77.7015 38.0133 77.481 38.0066C77.2086 38.0057 76.9401 37.9421 76.6963 37.8208C76.4525 37.6995 76.24 37.5237 76.0753 37.3072C75.5528 36.657 74.8869 36.1359 74.1295 35.7847C73.372 35.4335 72.5435 35.2617 71.7086 35.2825C68.3534 35.2825 65.8584 37.7741 65.8584 41.1996C65.8584 44.625 68.2758 47.1147 71.7086 47.1147C72.5435 47.1356 73.372 46.9637 74.1295 46.6125C74.8869 46.2613 75.5528 45.7403 76.0753 45.09C76.5432 44.6231 77.0131 44.3906 77.5587 44.3906C78.4946 44.3906 79.2751 45.1656 79.2751 46.0239C79.2751 46.4908 79.1178 46.8803 78.7276 47.4247C77.1743 49.3719 74.5162 50.5382 71.7862 50.5382C66.2468 50.546 62.113 46.4986 62.113 41.1996Z" fill="#3178BC"/>
<path d="M94.0917 42.2187V48.6783C94.1021 48.9162 94.0629 49.1536 93.9764 49.3755C93.89 49.5975 93.7582 49.799 93.5895 49.9674C93.4207 50.1358 93.2188 50.2673 92.9964 50.3535C92.774 50.4398 92.536 50.479 92.2976 50.4685C91.8817 50.4807 91.4747 50.3473 91.1471 50.0914C90.8194 49.8356 90.5917 49.4734 90.5035 49.0677C89.4881 50.0016 88.1619 50.546 86.5251 50.546C83.7175 50.546 81.8439 48.9127 81.8439 46.4986C81.8439 44.0845 83.7952 42.6082 86.9931 42.6082H90.3463V41.9843C90.3463 40.506 89.4104 39.6497 87.7736 39.6497C86.8172 39.6447 85.8954 40.0068 85.199 40.661C84.7311 40.9729 84.4961 41.1279 84.1059 41.1279C83.906 41.1352 83.7066 41.1024 83.5196 41.0316C83.3326 40.9608 83.1616 40.8533 83.0169 40.7156C82.8721 40.5778 82.7565 40.4125 82.6767 40.2295C82.597 40.0464 82.5548 39.8493 82.5526 39.6497C82.5526 39.1052 82.8652 38.6383 83.3292 38.1714C84.4942 37.0806 86.2145 36.5361 88.2435 36.5361C91.9889 36.4586 94.0917 38.5608 94.0917 42.2187ZM90.4259 45.1753V45.0203H87.5426C86.2947 45.0203 85.6708 45.4873 85.6708 46.4211C85.6708 47.355 86.3718 47.9014 87.6125 47.9014C89.1813 47.9014 90.4298 46.7331 90.4298 45.1753H90.4259Z" fill="#3178BC"/>
<path d="M106.576 38.2489C106.576 39.2602 105.874 39.8841 104.86 40.0391C102.918 40.1941 101.662 41.4399 101.662 43.5421V48.7558C101.662 49.8466 100.885 50.6255 99.868 50.6255C99.6211 50.6289 99.376 50.5828 99.1473 50.49C98.9185 50.3972 98.7108 50.2596 98.5362 50.0853C98.3617 49.911 98.224 49.7035 98.1313 49.4751C98.0385 49.2468 97.9926 49.0022 97.9963 48.7558V38.3264C97.9963 37.2375 98.773 36.4587 99.7904 36.4587C100.241 36.4556 100.676 36.6223 101.008 36.9255C101.341 37.2287 101.547 37.6459 101.584 38.0939C102.441 37.1581 103.612 36.5439 104.86 36.5439C105.874 36.6137 106.576 37.2375 106.576 38.2489Z" fill="#3178BC"/>
<path d="M119.993 42.2187V48.6783C120.004 48.9162 119.964 49.1536 119.878 49.3755C119.791 49.5975 119.66 49.799 119.491 49.9674C119.322 50.1358 119.12 50.2673 118.898 50.3535C118.675 50.4398 118.437 50.479 118.199 50.4685C117.783 50.4807 117.376 50.3473 117.048 50.0914C116.721 49.8356 116.493 49.4734 116.405 49.0677C115.389 50.0016 114.063 50.546 112.427 50.546C109.619 50.546 107.745 48.9127 107.745 46.4986C107.745 44.0845 109.687 42.6082 112.894 42.6082H116.248V41.9843C116.248 40.506 115.312 39.6497 113.675 39.6497C112.719 39.6447 111.797 40.0068 111.1 40.661C110.632 40.9729 110.398 41.1279 110.007 41.1279C109.807 41.1352 109.608 41.1024 109.421 41.0316C109.234 40.9608 109.063 40.8533 108.918 40.7156C108.773 40.5778 108.658 40.4125 108.578 40.2295C108.498 40.0464 108.456 39.8493 108.454 39.6497C108.454 39.1052 108.767 38.6383 109.231 38.1714C110.396 37.0806 112.116 36.5361 114.145 36.5361C117.809 36.4586 119.993 38.5608 119.993 42.2187ZM116.248 45.1753V45.0203H113.362C112.115 45.0203 111.491 45.4873 111.491 46.4211C111.491 47.355 112.192 47.9014 113.432 47.9014C115.079 47.9014 116.248 46.7331 116.248 45.1753V45.1753Z" fill="#4D4E50"/>
<path d="M136.295 41.8293V48.6782C136.295 49.769 135.518 50.546 134.501 50.546C134.26 50.5412 134.023 50.489 133.802 50.3925C133.581 50.296 133.382 50.157 133.216 49.9835C133.049 49.81 132.918 49.6054 132.831 49.3815C132.744 49.1575 132.701 48.9185 132.707 48.6782V42.3737C132.707 40.8237 131.693 39.7271 130.212 39.7271C128.73 39.7271 127.637 40.8179 127.637 42.3737V48.6782C127.637 49.769 126.861 50.546 125.843 50.546C125.596 50.5494 125.351 50.5034 125.123 50.4107C124.894 50.318 124.687 50.1806 124.512 50.0065C124.338 49.8324 124.2 49.6251 124.107 49.397C124.014 49.1688 123.968 48.9244 123.971 48.6782V38.3263C123.971 37.2374 124.748 36.4586 125.765 36.4586C126.173 36.4458 126.571 36.5806 126.887 36.8381C127.202 37.0956 127.414 37.4584 127.482 37.8594C128.534 36.9298 129.898 36.4297 131.303 36.4586C134.268 36.4586 136.295 38.5607 136.295 41.8293Z" fill="#4D4E50"/>
<path d="M151.506 42.2187V48.6783C151.516 48.9162 151.477 49.1538 151.391 49.3759C151.305 49.5979 151.173 49.7996 151.004 49.968C150.835 50.1365 150.633 50.268 150.411 50.3541C150.188 50.4403 149.95 50.4793 149.712 50.4685C149.296 50.4807 148.889 50.3473 148.561 50.0914C148.233 49.8356 148.006 49.4734 147.918 49.0677C146.904 50.0016 145.578 50.546 143.939 50.546C141.132 50.546 139.26 48.9127 139.26 46.4986C139.26 44.0845 141.201 42.6082 144.407 42.6082H147.762V41.9843C147.762 40.506 146.826 39.6497 145.188 39.6497C144.231 39.6447 143.309 40.0068 142.613 40.661C142.145 40.9729 141.912 41.1279 141.522 41.1279C141.322 41.1349 141.123 41.102 140.936 41.0311C140.749 40.9602 140.578 40.8527 140.433 40.715C140.289 40.5773 140.173 40.4121 140.093 40.2291C140.013 40.0462 139.971 39.8492 139.969 39.6497C139.969 39.1052 140.281 38.6383 140.745 38.1714C141.91 37.0806 143.632 36.5361 145.659 36.5361C149.401 36.4586 151.506 38.5608 151.506 42.2187ZM147.84 45.1753V45.0203H144.962C143.713 45.0203 143.089 45.4873 143.089 46.4211C143.089 47.355 143.792 47.9014 145.04 47.9014C146.591 47.9014 147.84 46.7331 147.84 45.1753V45.1753Z" fill="#4D4E50"/>
<path d="M155.406 48.6782V31.3184C155.397 31.0706 155.439 30.8234 155.529 30.5925C155.62 30.3616 155.758 30.1519 155.933 29.9765C156.109 29.8012 156.319 29.6639 156.551 29.5734C156.782 29.4829 157.03 29.4411 157.278 29.4507C157.519 29.4555 157.756 29.5076 157.977 29.6041C158.198 29.7006 158.397 29.8396 158.564 30.0131C158.73 30.1866 158.861 30.3912 158.948 30.6152C159.036 30.8392 159.078 31.0781 159.072 31.3184V48.6782C159.072 49.769 158.296 50.5459 157.278 50.5459C157.03 50.5557 156.782 50.5141 156.55 50.4237C156.319 50.3334 156.109 50.1961 155.933 50.0207C155.757 49.8453 155.619 49.6354 155.529 49.4044C155.438 49.1733 155.397 48.9261 155.406 48.6782Z" fill="#4D4E50"/>
<path d="M175.922 38.2487C175.918 38.5492 175.838 38.8438 175.689 39.1051L169.759 51.3247C168.278 54.2833 166.639 55.5291 164.221 55.5291C163.596 55.5291 163.056 55.4496 162.668 55.2171C162.389 55.0827 162.154 54.8729 161.988 54.6116C161.823 54.3503 161.734 54.0479 161.732 53.7388C161.732 52.805 162.435 52.1889 163.371 52.1889H163.684C164.849 52.1889 165.625 51.7219 166.256 50.4761L166.724 49.3873L162.045 39.1186C161.905 38.8537 161.825 38.5614 161.81 38.2623C161.829 37.7934 162.024 37.3488 162.356 37.0171C162.689 36.6853 163.134 36.4907 163.604 36.4721C163.945 36.4709 164.279 36.565 164.568 36.7438C164.858 36.9225 165.092 37.1788 165.243 37.4834L168.831 45.5007L172.497 37.4834C172.648 37.1788 172.881 36.9225 173.171 36.7438C173.461 36.565 173.795 36.4709 174.135 36.4721C174.37 36.4692 174.603 36.5132 174.821 36.6014C175.039 36.6896 175.236 36.8203 175.403 36.9857C175.569 37.1512 175.701 37.3481 175.79 37.565C175.879 37.7819 175.924 38.0143 175.922 38.2487V38.2487Z" fill="#4D4E50"/>
<path d="M187.7 48.7557C187.7 49.457 187.311 49.9182 186.764 50.2359C186.153 50.5055 185.49 50.6378 184.822 50.6234C181.312 50.6234 179.44 48.8332 179.44 45.5627V39.884H178.663C177.727 39.884 177.11 39.2601 177.11 38.334C177.105 38.129 177.141 37.9251 177.217 37.7346C177.293 37.5441 177.408 37.3711 177.553 37.2261C177.698 37.0811 177.872 36.9671 178.063 36.8911C178.253 36.8151 178.458 36.7787 178.663 36.784H179.44V34.9143C179.43 34.6665 179.472 34.4194 179.563 34.1885C179.654 33.9576 179.791 33.7478 179.967 33.5725C180.143 33.3971 180.353 33.2599 180.584 33.1694C180.816 33.0789 181.063 33.0371 181.312 33.0466C182.325 33.0466 183.106 33.8216 183.106 34.9143V36.784H185.603C186.539 36.784 187.156 37.4059 187.156 38.334C187.156 39.262 186.533 39.884 185.603 39.884H183.098V45.1752C183.098 46.6554 183.801 47.2774 185.517 47.2774H186.063C187.076 47.2057 187.7 47.8218 187.7 48.7557Z" fill="#4D4E50"/>
<path d="M194.565 31.8666C194.565 33.1105 193.472 34.0444 192.303 34.0444C191.055 34.0444 189.962 33.033 189.962 31.8666C189.979 31.269 190.229 30.7017 190.659 30.2851C191.089 29.8685 191.664 29.6355 192.263 29.6355C192.863 29.6355 193.438 29.8685 193.868 30.2851C194.298 30.7017 194.548 31.269 194.565 31.8666V31.8666ZM190.352 48.6781V38.3262C190.342 38.0782 190.384 37.8309 190.475 37.5998C190.566 37.3688 190.704 37.159 190.88 36.9836C191.056 36.8082 191.266 36.671 191.498 36.5806C191.729 36.4902 191.977 36.4486 192.226 36.4584C193.239 36.4584 194.02 37.2334 194.02 38.3262V48.6781C194.03 48.9262 193.988 49.1736 193.897 49.4048C193.806 49.636 193.669 49.8459 193.493 50.0214C193.317 50.1968 193.106 50.334 192.874 50.4243C192.643 50.5145 192.395 50.5559 192.146 50.5458C191.905 50.541 191.668 50.4889 191.447 50.3924C191.227 50.2959 191.027 50.1569 190.861 49.9834C190.694 49.8099 190.563 49.6053 190.476 49.3813C190.389 49.1573 190.347 48.9184 190.352 48.6781V48.6781Z" fill="#4D4E50"/>
<path d="M197.295 43.4645C197.295 39.4946 200.493 36.4586 204.549 36.4586C206.811 36.4586 208.995 37.5475 210.009 39.1052C210.208 39.4054 210.317 39.7565 210.322 40.1166C210.327 40.3328 210.288 40.5478 210.208 40.7486C210.127 40.9494 210.007 41.1318 209.853 41.2847C209.7 41.4376 209.517 41.5579 209.316 41.6382C209.115 41.7185 208.9 41.7571 208.683 41.7518C208.446 41.7694 208.209 41.7289 207.992 41.634C207.775 41.5391 207.584 41.3927 207.436 41.2074C206.733 40.351 205.798 39.8046 204.627 39.8046C202.522 39.8046 201.039 41.3546 201.039 43.4645C201.039 45.6423 202.522 47.2 204.627 47.2C205.792 47.2 206.733 46.6556 207.436 45.7992C207.582 45.6117 207.772 45.4636 207.99 45.3684C208.208 45.2733 208.446 45.2342 208.683 45.2548C208.899 45.2495 209.115 45.2881 209.316 45.3682C209.517 45.4484 209.7 45.5685 209.853 45.7212C210.006 45.8739 210.127 46.0561 210.207 46.2566C210.288 46.4572 210.327 46.672 210.322 46.8881C210.327 47.2257 210.217 47.5551 210.009 47.8219C208.918 49.5346 206.889 50.546 204.549 50.546C200.493 50.546 197.295 47.4325 197.295 43.4645Z" fill="#4D4E50"/>
<path d="M212.896 48.6007C212.719 48.4644 212.577 48.2878 212.482 48.0855C212.387 47.8833 212.342 47.6613 212.351 47.4382C212.36 47.1357 212.455 46.842 212.624 46.5911C212.794 46.3403 213.031 46.1425 213.309 46.0208C213.586 45.8991 213.893 45.8585 214.193 45.9036C214.493 45.9487 214.774 46.0777 215.003 46.2757C215.81 47.0187 216.867 47.4333 217.966 47.4382C218.902 47.4382 219.682 47.0507 219.682 46.3493C219.682 45.7274 219.137 45.4929 218.278 45.1035L216.797 44.4816C214.535 43.5477 213.129 42.4569 213.129 40.3567C213.129 37.7876 215.236 36.3074 218.123 36.3074C219.76 36.3074 221.321 36.8537 222.412 37.7876C222.615 37.924 222.779 38.1104 222.889 38.3286C222.998 38.5469 223.049 38.7896 223.037 39.0334C223.038 39.4327 222.884 39.8167 222.607 40.1055C222.331 40.3942 221.954 40.5654 221.554 40.5834C221.243 40.5834 220.931 40.4284 220.54 40.1959C219.838 39.729 218.987 39.3395 218.043 39.3395C217.185 39.3395 216.562 39.6515 216.562 40.2734C216.562 40.8198 217.03 41.1298 217.966 41.4359L219.292 41.9803C221.711 42.9936 223.115 44.005 223.115 46.1071C223.115 48.9087 220.773 50.387 217.81 50.387C216.911 50.4578 216.007 50.3349 215.159 50.0267C214.311 49.7185 213.539 49.2322 212.896 48.6007V48.6007Z" fill="#4D4E50"/>
<path d="M227.014 34.4338C227.019 34.4656 227.016 34.498 227.006 34.5285C226.996 34.5591 226.979 34.5868 226.957 34.6096C226.934 34.6324 226.906 34.6496 226.876 34.6598C226.845 34.67 226.813 34.6729 226.781 34.6683C226.703 34.6683 226.626 34.5908 226.546 34.5113L225.688 33.3488H225.064V34.3602C225.067 34.3927 225.064 34.4254 225.053 34.4562C225.043 34.4871 225.026 34.5155 225.004 34.5396C224.982 34.5636 224.955 34.5828 224.925 34.596C224.895 34.6091 224.863 34.6159 224.83 34.6159C224.798 34.6159 224.766 34.6091 224.736 34.596C224.706 34.5828 224.679 34.5636 224.657 34.5396C224.635 34.5155 224.618 34.4871 224.608 34.4562C224.597 34.4254 224.594 34.3927 224.596 34.3602V31.6322C224.592 31.6004 224.595 31.568 224.605 31.5374C224.615 31.5069 224.632 31.4792 224.655 31.4565C224.678 31.4337 224.706 31.4166 224.736 31.4064C224.767 31.3962 224.8 31.3933 224.831 31.3978H225.69C226.313 31.3978 226.781 31.7853 226.781 32.3336C226.778 32.5127 226.726 32.6876 226.629 32.8388C226.533 32.99 226.397 33.1115 226.235 33.19L226.936 34.1238C226.923 34.2331 226.951 34.3433 227.014 34.4338ZM225.072 32.9555H225.695C225.769 32.9642 225.844 32.9561 225.914 32.9318C225.985 32.9075 226.048 32.8677 226.101 32.8154C226.154 32.763 226.194 32.6995 226.218 32.6295C226.243 32.5595 226.251 32.4848 226.243 32.4111C226.245 32.339 226.232 32.2673 226.205 32.2004C226.178 32.1335 226.137 32.0728 226.086 32.0219C226.035 31.971 225.974 31.931 225.907 31.9043C225.84 31.8776 225.768 31.8648 225.695 31.8667H225.072V32.9555Z" fill="#4D4E50"/>
<path d="M225.688 35.8346C227.281 35.8346 228.573 34.5456 228.573 32.9555C228.573 31.3654 227.281 30.0764 225.688 30.0764C224.094 30.0764 222.802 31.3654 222.802 32.9555C222.802 34.5456 224.094 35.8346 225.688 35.8346Z" stroke="#4D4E50" stroke-miterlimit="10"/>
</svg>
